<svg fill="none" height="310" stroke-width="20" width="310" xmlns="http://www.w3.org/2000/svg"><g stroke-linecap="round" stroke-linejoin="round"><path d="m125 65h60v150h-60z" fill="#eee" stroke="#eee" stroke-width="20"/><path d="m125 50q15 0 15 15m45-15q-15 0-15 15m-30 0v-15h30v15z" fill="#212121" stroke="#212121" stroke-width="11"/><path d="m110 65a15 15 0 0 1 15-15h60a15 15 0 0 1 15 15m-90 0v150m90-150v150m-90 0a15 15 0 0 0 15 15m75-15a15 15 0 0 1 -15 15m-60 0h60z" fill="none" stroke="#eee" stroke-width="5"/></g></svg>