<svg xmlns="http://www.w3.org/2000/svg" baseProfile="full" version="1.1" width="480px" height="480px" style="fill: none; width: 480px; height: 480px; stroke-width: 15;"><path d="M240,0 L240,0 L0,240 L480,240 L240,0 Z M60,180 L60,180 L240,420 L420,180 L60,180 " style="stroke-width: 10; stroke-linecap: round; stroke-linejoin: round; stroke: rgb(238, 238, 238); fill: rgb(238, 238, 238);"></path><path d="M240,45 L240,45 L120,210 L240,375 L360,210 L240,45 M240,150 L240,150 L240,270 M225,195 L225,195 L255,195 M225,225 L225,225 L255,225 M105,165 L105,165 L45,225 L90,225 L105,165 M375,165 L375,165 L390,225 L435,225 L375,165 " style="stroke-width: 15; stroke-linecap: round; stroke-linejoin: round; stroke: rgb(33, 33, 33); fill: none;"></path><path d="" style="stroke-width: 10; stroke-linecap: round; stroke-linejoin: round; stroke: rgb(238, 238, 238); fill: rgb(238, 238, 238);"></path></svg>