<svg xmlns="http://www.w3.org/2000/svg" baseProfile="full" version="1.1" width="300px" height="300px" style="fill: none; width: 300px; height: 300px; stroke-width: 1;"><path d="M105,180 L105,180 L105,180 M90,120 L90,120 L90,120 M165,135 L165,135 L165,135 M165,120 L165,120 L165,120 M195,105 L195,105 L195,105 M135,180 L135,180 L135,180 M120,180 L120,180 L120,180 M120,165 L120,165 L120,165 M195,180 L195,180 L195,180 M180,180 L180,180 L180,180 M195,165 L195,165 L195,165 " style="stroke-width: 1; stroke-linecap: round; stroke-linejoin: round; stroke: rgb(238, 238, 238); fill: rgb(238, 238, 238);"></path><path d="M75,135 L75,135 L60,135 L60,165 L60,165 L75,165 M120,120 L120,120 L120,150 L150,150 L150,120 L120,120 M180,120 L180,120 L180,135 L195,135 L195,120 L180,120 " style="stroke-width: 1; stroke-linecap: round; stroke-linejoin: round; stroke: rgb(238, 238, 238); fill: rgb(238, 238, 238);"></path><path d="M75,105 A15,-15 0 0,1 90,90 M225,90 A15,15 0 0,1 240,105 M75,195 A15,15 0 0,0 90,210 M75,105 L75,105 L75,195 M240,195 L240,195 L240,105 L240,105 L210,105 L210,120 L240,120 M225,90 L225,90 L90,90 L90,90 L90,105 L180,105 L180,90 M240,135 L240,135 L210,135 L210,150 L240,150 M240,165 L240,165 L210,165 L210,195 L240,195 M90,135 L90,135 L90,180 M180,195 L180,195 L195,195 L195,225 L180,225 M180,195 L180,195 L180,225 L180,210 M120,225 L120,225 L120,210 L120,195 L135,195 L150,195 L150,210 L150,225 L120,225 M90,210 L90,210 L120,210 M150,210 L150,210 L180,210 M195,210 A30,0 0 0,0 225,210 A15,-15 0 0,0 240,195 M165,165 L165,165 L165,195 M90,210 L90,210 L90,195 L105,195 L105,210 " style="stroke-width: 5; stroke-linecap: round; stroke-linejoin: round; stroke: rgb(238, 238, 238); fill: none;"></path></svg>