<svg fill="none" height="300" width="300" xmlns="http://www.w3.org/2000/svg"><g stroke="#eee" stroke-linecap="round" stroke-linejoin="round"><path d="m75 135h-15v30h15m45-45v30h30v-30zm60 0v15h15v-15z" fill="#eee"/><path d="m75 105a15-15 0 0 1 15-15m135 0a15 15 0 0 1 15 15m-165 90a15 15 0 0 0 15 15m-15-105v90m165 0v-90h-30v15h30m-15-30h-135v15h90v-15m60 45h-30v15h30m0 15h-30v30h30m-150-60v45m90 15h15v30h-15m0-30v30-15m-60 15v-15-15h15 15v15 15zm-30-15h30m30 0h30m15 0a30 0 0 0 0 30 0 15-15 0 0 0 15-15m-75-30v30m-75 15v-15h15v15" fill="none" stroke-width="5"/></g></svg>