<svg xmlns="http://www.w3.org/2000/svg" baseProfile="full" version="1.1" width="300px" height="300px" style="fill: none; width: 300px; height: 300px; stroke-width: 5;"><path d="M150,225 L150,225 L150,225 " style="stroke-width: 15; stroke-linecap: round; stroke-linejoin: round; stroke: rgb(238, 238, 238); fill: none;"></path><path d="M120,90 L120,90 L180,90 L180,210 L120,210 L120,90 " style="stroke-width: 10; stroke-linecap: round; stroke-linejoin: round; stroke: rgb(238, 238, 238); fill: rgb(238, 238, 238);"></path><path d="M105,75 A15,-15 0 0,1 120,60 L120,60 L180,60 A15,15 0 0,1 195,75 M105,75 L105,75 L105,225 M195,75 L195,75 L195,225 M105,225 A15,15 0 0,0 120,240 M195,225 A-15,15 0 0,1 180,240 M120,240 L120,240 L180,240 Z M135,75 L135,75 L165,75 " style="stroke-width: 5; stroke-linecap: round; stroke-linejoin: round; stroke: rgb(238, 238, 238); fill: none;"></path></svg>