<svg xmlns="http://www.w3.org/2000/svg" baseProfile="full" version="1.1" width="300px" height="300px" style="fill: none; width: 300px; height: 300px; stroke-width: 10;"><path d="" style="stroke-width: 10; stroke-linecap: round; stroke-linejoin: round; stroke: rgb(238, 238, 238); fill: rgb(238, 238, 238);"></path><path d="M120,120 L120,120 L75,135 L135,75 L120,120 Z M120,180 L120,180 L135,225 L75,165 L120,180 Z M180,120 L180,120 L165,75 L225,135 L180,120 Z M180,180 L180,180 L225,165 L165,225 L180,180 Z M150,120 Q135,135 120,150 Q135,165 150,180 Q165,165 180,150 Q165,135 150,120 Z " style="stroke-width: 10; stroke-linecap: round; stroke-linejoin: bevel; stroke: rgb(238, 238, 238); fill: rgb(238, 238, 238);"></path><path d="M135,75 L135,75 L150,60 L165,75 Z M225,135 L225,135 L240,150 L225,165 L225,135 Z M135,225 L135,225 L150,240 L165,225 L135,225 L150,240 Z M60,150 L60,150 L75,165 L75,135 L60,150 Z " style="stroke-width: 10; stroke-linecap: square; stroke-linejoin: miter; stroke: rgb(238, 238, 238); fill: rgb(238, 238, 238);"></path></svg>