<svg fill="none" height="300" stroke-width="10" width="300" xmlns="http://www.w3.org/2000/svg"><g stroke="#eee" stroke-linecap="round" stroke-linejoin="round"><path d="m150 105h15m-15 30-30 15 30 15 30-15zm75 45-15 15" fill="#eee" stroke-width="10"/><g stroke-width="5"><path d="m105 90 15-15h120v15" fill="#eee"/><path d="m60 90a0 105 0 0 0 0 105 15 15 0 0 0 15 15m-15-120h180a0 105 0 0 1 0 105-15 15 0 0 1 -15 15m-150 0h150m-165-15a0 15 0 0 0 0 15 15 15 0 0 0 15 15h150m15-15a-15 15 0 0 1 -15 15m15-15v-15" fill="none"/></g></g></svg>