<svg fill="none" height="300" stroke-width="5" width="300" xmlns="http://www.w3.org/2000/svg"><g stroke="#eee" stroke-width="5"><path d="m150 120-30 15 30 15 30-15z" fill="#eee" stroke-linecap="round" stroke-linejoin="round"/><path d="m60 75a0 120 0 0 0 0 120 30 15 0 0 0 30 15 120 0 0 0 0 120 0 30-15 0 0 0 30-15 0-120 0 0 0 0-120-30-15 0 0 0 -30-15-120 0 0 0 0 -120 0-30 15 0 0 0 -30 15m0 120a0 30 0 0 0 0 30 15 15 0 0 0 15 15 150 0 0 0 0 150 0 15-15 0 0 0 15-15 0-30 0 0 0 0-30m-45 30a30 0 0 0 0 30 0 15-15 0 0 0 15-15" fill="none" stroke-linecap="square"/></g></svg>