<svg fill="none" height="310" stroke-width="5" width="310" xmlns="http://www.w3.org/2000/svg"><g stroke="#eee"><path d="m185 140-30 30v75" fill="none" stroke-linecap="round" stroke-linejoin="round" stroke-width="4"/><g stroke-width="5"><path d="m185 155-15 15v30l15-15" fill="#eee" stroke-linecap="round" stroke-linejoin="round"/><path d="m110 80a15 15 0 0 1 15-15m45 0a15 15 0 0 1 15 15m-60-15h45m-60 15v150a15 15 0 0 0 15 15m45 0a15 15 0 0 0 15-15m-60 15h45m15-165v150" fill="none" stroke-linecap="square"/></g></g></svg>