<svg fill="none" height="330" width="330" xmlns="http://www.w3.org/2000/svg"><g fill="none" stroke="#eee" stroke-linecap="square" stroke-width="12"><path d="m150 45v75m30-75v75m-30 0a75 30 0 0 0 -75 30m105-30a45 30 0 0 1 45 30m-75-75q0 30-75 90m105-75q90 0 75 105m-75-150v75m-30-75v75m30 0a75 30 0 0 1 75 30m-105-30a45 30 0 0 0 -45 30m75-75q0 30 75 90m-105-75q-90 0-75 105" transform="matrix(-.5 -.8660254 .8660254 -.5 104.605808 390.394192)"/><path d="m150 45v75m30-75v75m-30 0a75 30 0 0 0 -75 30m105-30a45 30 0 0 1 45 30m-75-75q0 30-75 90m105-75q90 0 75 105m-75-150v75m-30-75v75m30 0a75 30 0 0 1 75 30m-105-30a45 30 0 0 0 -45 30m75-75q0 30 75 90m-105-75q-90 0-75 105" transform="matrix(-.5 .8660254 -.8660254 -.5 390.394192 104.605808)"/><path d="m150 45v75m30-75v75m-30 0a75 30 0 0 0 -75 30m105-30a45 30 0 0 1 45 30m-75-75q0 30-75 90m105-75q90 0 75 105m-75-150v75m-30-75v75m30 0a75 30 0 0 1 75 30m-105-30a45 30 0 0 0 -45 30m75-75q0 30 75 90m-105-75q-90 0-75 105"/></g></svg>