<svg xmlns="http://www.w3.org/2000/svg" baseProfile="full" version="1.1" width="330px" height="330px" style="fill: none; width: 330px; height: 330px;"><path d="M150,45 L150,45 L150,120 M180,45 L180,45 L180,120 M150,120 A75,30 0 0,0 75,150 M180,120 A45,30 0 0,1 225,150 M150,75 Q150,105 75,165 M180,90 Q270,90 255,195 M180,45 L180,45 L180,120 M150,45 L150,45 L150,120 M180,120 A75,30 0 0,1 255,150 M150,120 A45,30 0 0,0 105,150 M180,75 Q180,105 255,165 M150,90 Q60,90 75,195 " style="stroke-width: 12; stroke-linecap: square; stroke-linejoin: miter; stroke: rgb(238, 238, 238); fill: none;" transform="rotate(240 165 165)"/><path d="M150,45 L150,45 L150,120 M180,45 L180,45 L180,120 M150,120 A75,30 0 0,0 75,150 M180,120 A45,30 0 0,1 225,150 M150,75 Q150,105 75,165 M180,90 Q270,90 255,195 M180,45 L180,45 L180,120 M150,45 L150,45 L150,120 M180,120 A75,30 0 0,1 255,150 M150,120 A45,30 0 0,0 105,150 M180,75 Q180,105 255,165 M150,90 Q60,90 75,195 " style="stroke-width: 12; stroke-linecap: square; stroke-linejoin: miter; stroke: rgb(238, 238, 238); fill: none;" transform="rotate(120 165 165)"/><path d="M150,45 L150,45 L150,120 M180,45 L180,45 L180,120 M150,120 A75,30 0 0,0 75,150 M180,120 A45,30 0 0,1 225,150 M150,75 Q150,105 75,165 M180,90 Q270,90 255,195 M180,45 L180,45 L180,120 M150,45 L150,45 L150,120 M180,120 A75,30 0 0,1 255,150 M150,120 A45,30 0 0,0 105,150 M180,75 Q180,105 255,165 M150,90 Q60,90 75,195 " style="stroke-width: 12; stroke-linecap: square; stroke-linejoin: miter; stroke: rgb(238, 238, 238); fill: none;" transform="rotate(0 165 165)"/></svg>