<svg fill="none" height="300" stroke-width="5" width="300" xmlns="http://www.w3.org/2000/svg"><g fill="none" stroke-width="5"><path d="m60 60a75 0 0 0 1 75 0 15 15 0 0 1 15 15 15-15 0 0 1 15-15 75 0 0 0 1 75 0m-180 180a75 0 0 0 0 75 0 15-15 0 0 0 15-15 15 15 0 0 0 15 15 75 0 0 0 0 75 0m-180-180v180m180-180v180z" stroke="#fff" stroke-linecap="square" stroke-linejoin="round"/><path d="m150 210q30-30 75-15m-75 15q-30-30-75-15m150-120q-45-15-75 15-30-30-75-15v120m150-120v120m-75-105v120m-60-60a0-45 0 0 0 0-45 30 15 0 0 0 30 15 15 30 0 0 0 15 30m-30-15v-30m60 45 15-45h15v45m-15-15h30" stroke="#eee" stroke-linecap="round"/></g></svg>