<svg fill="none" height="300" stroke-width="5" width="300" xmlns="http://www.w3.org/2000/svg"><g stroke="#eee" stroke-width="5"><path d="m150 75-15 30h30zm-60 60-15 15 15 15 15-15zm60 0a-15 15 0 0 0 -15 15 15 15 0 0 0 15 15 15-15 0 0 0 15-15-15-15 0 0 0 -15-15zm45 0q0 30 30 30 0-30-30-30" fill="#eee" stroke-linecap="round" stroke-linejoin="round"/><path d="m180 60a30 0 0 0 1 30 0 30 30 0 0 1 30 30m-180 120a30 30 0 0 0 30 30 30 0 0 0 0 30 0m60 0a30 0 0 0 0 30 0 30-30 0 0 0 30-30m-180-120a30-30 0 0 1 30-30 30 0 0 0 1 30 0m15 135a0 15 0 0 1 0 15 15 15 0 0 1 15 15m15-30a0 15 0 0 0 0 15-15 15 0 0 0 -15 15" fill="none" stroke-linecap="square"/></g></svg>