<svg xmlns="http://www.w3.org/2000/svg" baseProfile="full" version="1.1" width="300px" height="300px" style="fill: none; width: 300px; height: 300px; stroke-width: 10;"><path d="M165,90 L165,90 L165,90 M225,165 L225,165 L225,165 M75,105 L75,105 L75,105 M135,225 L135,225 L135,225 M210,210 L210,210 L210,210 M225,195 L225,195 L225,195 M120,90 L120,90 L120,90 M210,120 L210,120 L210,120 M180,150 L180,150 L180,150 L180,150 L180,150 M75,60 L75,60 L75,60 L75,60 M105,75 L105,75 L105,75 M90,90 L90,90 L90,90 " style="stroke-width: 5; stroke-linecap: round; stroke-linejoin: round; stroke: rgb(238, 238, 238); fill: none;"></path><path d="M165,150 L165,150 L165,150 M90,195 L90,195 L90,195 M90,150 L90,150 L90,150 M165,210 L165,210 L165,210 M120,75 L120,75 L120,75 M135,195 L135,195 L135,195 M135,165 L135,165 L135,165 M135,105 L135,105 L135,105 M105,120 L105,120 L105,120 " style="stroke-width: 10; stroke-linecap: round; stroke-linejoin: round; stroke: rgb(238, 238, 238); fill: none;"></path><path d="M195,75 L195,75 L195,75 M225,105 L225,105 L225,105 M120,150 L120,150 L120,150 L120,150 M75,240 L75,240 L75,240 M225,240 Z M195,165 L195,165 L195,165 M180,120 L180,120 L180,120 " style="stroke-width: 15; stroke-linecap: round; stroke-linejoin: round; stroke: rgb(238, 238, 238); fill: none;"></path></svg>