<svg fill="none" height="300" stroke-width="5" width="300" xmlns="http://www.w3.org/2000/svg"><g stroke="#eee" stroke-linejoin="round"><path d="m195 150h-60m-60 60a15 0 0 0 0 15 0 0-15 0 0 0 0-15-15 15 0 0 0 -15 15m30-15h60m-60 15h45m-75-105a0 15 0 0 1 0 15 15 0 0 0 1 15 0-15-15 0 0 1 -15-15m135 45q0 15 15 15 0-15-15-15m-105-45h30" fill="#eee" stroke-linecap="round" stroke-width="10"/><path d="m60 90h180m-180-15a15-15 0 0 1 15-15 150 0 0 0 1 150 0 15 15 0 0 1 15 15 0 150 0 0 1 0 150-15 15 0 0 1 -15 15-150 0 0 0 1 -150 0-15-15 0 0 1 -15-15 0-150 0 0 1 0-150" fill="none" stroke-width="5"/></g></svg>