<svg height="310" width="310" xmlns="http://www.w3.org/2000/svg"><path d="m185 65a60 60 0 0 0 -60 60h60zm-60 180a60 60 0 0 0 60-60h-60zm-30-120a30 30 0 0 1 30 30 30 30 0 0 1 -30 30 30 30 0 0 1 -30-30 30 30 0 0 1 30-30zm60 0a30 30 0 0 1 30 30 30 30 0 0 1 -30 30 30 30 0 0 1 -30-30 30 30 0 0 1 30-30zm60 0a30 30 0 0 1 30 30 30 30 0 0 1 -30 30 30 30 0 0 1 -30-30 30 30 0 0 1 30-30"/><path d="m125 65a60 60 0 0 1 60 60h-60zm60 180a60 60 0 0 1 -60-60h60zm-120-180a60 60 0 0 1 60 60h-60zm0 180a60 60 0 0 0 60-60h-60zm180-180a60 60 0 0 0 -60 60h60zm0 180a60 60 0 0 1 -60-60h60z"/></svg>