<svg xmlns="http://www.w3.org/2000/svg" baseProfile="full" version="1.1" width="300px" height="300px" style="fill: none; width: 300px; height: 300px; stroke-width: 5;"><path d="" style="stroke-width: 10; stroke-linecap: round; stroke-linejoin: round; stroke: rgb(68, 68, 68); fill: none;"></path><path d="M150,75 L150,75 L135,105 L165,105 L150,75 M90,135 L90,135 L75,150 L90,165 L105,150 L90,135 M150,135 A-15,15 0 0,0 135,150 A15,15 0 0,0 150,165 A15,-15 0 0,0 165,150 A-15,-15 0 0,0 150,135 Z M195,135 Q195,165 225,165 Q225,135 195,135 " style="stroke-width: 5; stroke-linecap: round; stroke-linejoin: round; stroke: rgb(238, 238, 238); fill: rgb(238, 238, 238);"></path><path d="M180,60 A30,0 0 0,1 210,60 A30,30 0 0,1 240,90 M60,210 A30,30 0 0,0 90,240 A30,0 0 0,0 120,240 M180,240 A30,0 0 0,0 210,240 A30,-30 0 0,0 240,210 M60,90 A30,-30 0 0,1 90,60 A30,0 0 0,1 120,60 M135,195 A0,15 0 0,1 135,210 A15,15 0 0,1 150,225 M165,195 A0,15 0 0,0 165,210 A-15,15 0 0,0 150,225 L150,225 L150,225 " style="stroke-width: 5; stroke-linecap: square; stroke-linejoin: miter; stroke: rgb(238, 238, 238); fill: none;"></path></svg>