<svg xmlns="http://www.w3.org/2000/svg" baseProfile="full" version="1.1" width="300px" height="300px" style="fill: none; width: 300px; height: 300px; stroke-width: 5;"><path d="" style="stroke-width: 1; stroke-linecap: round; stroke-linejoin: round; stroke: rgb(238, 238, 238); fill: rgb(238, 238, 238);"></path><path d="" style="stroke-width: 1; stroke-linecap: round; stroke-linejoin: round; stroke: rgb(238, 238, 238); fill: rgb(238, 238, 238);"></path><path d="M60,60 L60,60 L75,60 M90,60 L90,60 L105,60 M120,60 A75,0 0 0,1 195,60 A15,15 0 0,1 210,75 A0,15 0 0,1 210,90 M195,90 L195,90 L210,105 L225,90 M135,120 L135,120 L240,120 L240,165 L135,165 L135,120 M150,180 A-15,15 0 0,1 135,195 A-30,0 0 0,1 105,195 M105,180 L105,180 L90,195 L105,210 M165,225 L165,225 L135,225 M165,225 A15,-15 0 0,0 180,210 A0,-30 0 0,0 180,180 M135,210 L135,210 L120,225 L135,240 M210,180 L210,180 L210,210 M195,210 L195,210 L210,225 L225,210 M150,150 L150,150 L180,150 L180,135 L210,135 L210,150 L210,150 L210,150 L225,150 L225,135 " style="stroke-width: 5; stroke-linecap: round; stroke-linejoin: round; stroke: rgb(238, 238, 238); fill: none;"></path></svg>