<svg xmlns="http://www.w3.org/2000/svg" baseProfile="full" version="1.1" width="300px" height="300px" style="fill: none; width: 300px; height: 300px; stroke-width: 5;"><path d="" style="stroke-width: 10; stroke-linecap: round; stroke-linejoin: round; stroke: rgb(68, 68, 68); fill: none;"></path><path d="M75,75 L75,75 L75,75 M90,75 L90,75 L90,75 M105,75 L105,75 L105,75 M195,150 L195,150 L135,150 M75,210 A15,0 0 0,0 90,210 A0,-15 0 0,0 90,195 A-15,15 0 0,0 75,210 M105,195 L105,195 L165,195 M105,210 L105,210 L150,210 M75,105 A0,15 0 0,1 75,120 A15,0 0 0,1 90,120 A-15,-15 0 0,1 75,105 M210,150 Q210,165 225,165 Q225,150 210,150 M105,105 L105,105 L135,105 " style="stroke-width: 10; stroke-linecap: round; stroke-linejoin: round; stroke: rgb(238, 238, 238); fill: rgb(238, 238, 238);"></path><path d="M60,90 L60,90 L240,90 M60,75 A15,-15 0 0,1 75,60 A150,0 0 0,1 225,60 A15,15 0 0,1 240,75 A0,150 0 0,1 240,225 A-15,15 0 0,1 225,240 A-150,0 0 0,1 75,240 A-15,-15 0 0,1 60,225 A0,-150 0 0,1 60,75 " style="stroke-width: 5; stroke-linecap: butt; stroke-linejoin: round; stroke: rgb(238, 238, 238); fill: none;"></path></svg>